<svg xmlns="http://www.w3.org/2000/svg" viewBox="0 0 23.57 11.1">
  <title>cloudy</title>
  <g id="Layer_2" data-name="Layer 2">
    <g id="Cloudy">
      <g>
        <path d="M17.31,2.22l-.75-.45C12-.95,8.39,4.39,8.24,4.62l-.3.44-.42-.32a4.74,4.74,0,0,0-2.88-1,4.19,4.19,0,0,0-3.27,1.4A1.59,1.59,0,0,0,1,6.45,2.57,2.57,0,0,0,2.12,7.94c3,2.27,13.9,2.76,18.44,1.34,1.43-.45,1.72-.92,1.79-1.1C23.13,5.81,22,5,17.31,2.22Z" fill="none"/>
        <path d="M17.83,1.36,17.08.91C12.54-1.81,8.77,2.3,7.71,3.66,5.17,2.07,1.92,2.77.57,4.58A2.58,2.58,0,0,0,0,6.64a3.55,3.55,0,0,0,1.48,2.1c2.09,1.57,7.18,2.36,11.9,2.36a26.59,26.59,0,0,0,7.44-.87c1.39-.43,2.19-1,2.43-1.73C24.37,5.27,22.32,4,17.83,1.36Zm4.52,6.82c-.07.18-.36.65-1.79,1.1C16,10.7,5.15,10.21,2.12,7.94A2.57,2.57,0,0,1,1,6.45a1.59,1.59,0,0,1,.34-1.27,4.19,4.19,0,0,1,3.27-1.4,4.74,4.74,0,0,1,2.88,1l.42.32.3-.44C8.39,4.39,12-.95,16.56,1.77l.75.45C22,5,23.13,5.81,22.35,8.18Z"/>
      </g>
    </g>
  </g>
</svg>
