<svg xmlns="http://www.w3.org/2000/svg" viewBox="0 0 24.32 14.84">
  <title>fog</title>
  <g id="Layer_2" data-name="Layer 2">
    <g id="fog">
      <g>
        <path d="M2.1,7.34C5.21,9.5,16.38,9.93,20.81,8.51c1.23-.39,1.49-.78,1.54-.92h0c.77-2.14-.41-2.9-5-5.45l-.75-.42C12-.82,8.38,4.13,8.22,4.34l-.28.4-.41-.28a5,5,0,0,0-2.88-.89A5.16,5.16,0,0,0,2.48,4,2.28,2.28,0,0,0,1,5.67C.94,6.38,1.57,7,2.1,7.34Z" fill="none"/>
        <path d="M1.53,8.17A14,14,0,0,0,6.82,9.84h-6v1h22v-1H19.61a13.72,13.72,0,0,0,1.5-.37c1.24-.4,1.95-.9,2.18-1.55,1.09-3-1-4.17-5.48-6.67L17.06.84c-4.53-2.51-8.29,1.3-9.35,2.55a6.21,6.21,0,0,0-5.66-.26A3.2,3.2,0,0,0,0,5.58,2.85,2.85,0,0,0,1.53,8.17ZM2.48,4a5.16,5.16,0,0,1,2.17-.46,5,5,0,0,1,2.88.89l.41.28.28-.4C8.38,4.13,12-.82,16.58,1.71l.75.42c4.61,2.55,5.79,3.31,5,5.45h0c-.05.14-.31.53-1.54.92C16.38,9.93,5.21,9.5,2.1,7.34,1.57,7,.94,6.38,1,5.67A2.28,2.28,0,0,1,2.48,4Z"/>
        <rect x="2.32" y="11.84" width="22" height="1"/>
        <rect x="0.32" y="13.84" width="22" height="1"/>
      </g>
    </g>
  </g>
</svg>
