<svg xmlns="http://www.w3.org/2000/svg" viewBox="0 0 31.5 23.76">
  <title>partlysunny</title>
  <g id="Layer_2" data-name="Layer 2">
    <g id="PartlySunny">
      <g>
        <path d="M21.49,14.88l-.75-.45c-4.53-2.72-8.17,2.62-8.32,2.85l-.3.44-.42-.32a4.72,4.72,0,0,0-2.88-1,4.19,4.19,0,0,0-3.27,1.4,1.59,1.59,0,0,0-.34,1.27A2.54,2.54,0,0,0,6.3,20.6c3,2.28,13.9,2.76,18.44,1.34,1.43-.45,1.72-.92,1.79-1.1C27.31,18.48,26.13,17.65,21.49,14.88Z" fill="none"/>
        <path d="M11.89,16.32C13,15,16.73,10.85,21.26,13.57L22,14l1.21.73A8.89,8.89,0,0,0,19.93,10a7.81,7.81,0,0,0-5.85-1.51,8.39,8.39,0,0,0-6.51,7.09A5.86,5.86,0,0,1,11.89,16.32Z" fill="none"/>
        <path d="M24.41,15.49a9.92,9.92,0,0,0-3.89-6.3,8.8,8.8,0,0,0-6.6-1.68,9.31,9.31,0,0,0-7.41,8.41,4.23,4.23,0,0,0-1.76,1.32,2.59,2.59,0,0,0-.53,2.06A3.55,3.55,0,0,0,5.7,21.4c2.09,1.57,7.18,2.36,11.9,2.36A27,27,0,0,0,25,22.9c1.39-.44,2.19-1,2.43-1.74C28.33,18.58,27.19,17.28,24.41,15.49Zm-10.33-7A7.81,7.81,0,0,1,19.93,10a8.89,8.89,0,0,1,3.29,4.75L22,14l-.75-.45C16.73,10.85,13,15,11.89,16.32a5.86,5.86,0,0,0-4.32-.74A8.39,8.39,0,0,1,14.08,8.49ZM26.53,20.84c-.07.18-.36.65-1.79,1.1C20.2,23.36,9.33,22.88,6.3,20.6a2.54,2.54,0,0,1-1.09-1.49,1.59,1.59,0,0,1,.34-1.27,4.19,4.19,0,0,1,3.27-1.4,4.72,4.72,0,0,1,2.88,1l.42.32.3-.44c.15-.23,3.79-5.57,8.32-2.85l.75.45C26.13,17.65,27.31,18.48,26.53,20.84Z"/>
        <rect y="12.5" width="5" height="1"/>
        <rect x="14.5" width="1" height="6"/>
        <rect x="26.5" y="12.5" width="5" height="1"/>
      </g>
    </g>
  </g>
</svg>
