<svg xmlns="http://www.w3.org/2000/svg" viewBox="0 0 23.58 17.34">
  <title>rain</title>
  <g id="Layer_2" data-name="Layer 2">
    <g id="Rain">
      <g>
        <path d="M17.83,1.36,17.08.91C12.55-1.81,8.77,2.3,7.71,3.66,5.17,2.07,1.92,2.77.57,4.58A2.58,2.58,0,0,0,0,6.64a3.55,3.55,0,0,0,1.48,2.1c2.09,1.57,7.18,2.36,11.9,2.36a26.59,26.59,0,0,0,7.44-.87c1.39-.43,2.19-1,2.43-1.73C24.37,5.27,22.32,4,17.83,1.36Zm4.51,6.82c-.06.18-.35.65-1.78,1.1C16,10.7,5.15,10.21,2.12,7.94A2.57,2.57,0,0,1,1,6.45a1.59,1.59,0,0,1,.34-1.27,4.19,4.19,0,0,1,3.27-1.4,4.74,4.74,0,0,1,2.88,1l.42.32.3-.44C8.39,4.39,12-.95,16.56,1.77l.75.45C22,5,23.13,5.81,22.34,8.18Z"/>
        <rect x="11.32" y="11.34" width="1" height="3"/>
        <rect x="14.32" y="14.34" width="1" height="3"/>
        <rect x="18.32" y="12.34" width="1" height="3"/>
        <rect x="6.32" y="13.34" width="1" height="3"/>
      </g>
    </g>
  </g>
</svg>
