<svg aria-hidden="true" style="position: absolute; width: 0; height: 0; overflow: hidden;" version="1.1" xmlns="http://www.w3.org/2000/svg" xmlns:xlink="http://www.w3.org/1999/xlink" class="weather">
<defs>
<symbol id="cloudy" viewBox="0 0 68 32">
<title>cloudy</title>
<path d="M51.402 3.921l-2.162-1.297c-13.088-7.841-23.957 4.007-27.013 7.928-7.323-4.584-16.692-2.566-20.584 2.652-1.079 1.282-1.735 2.952-1.735 4.775 0 0.411 0.033 0.814 0.097 1.207l-0.006-0.043c0.646 2.539 2.173 4.648 4.23 6.031l0.037 0.023c6.025 4.526 20.699 6.804 34.306 6.804 0.569 0.015 1.238 0.024 1.91 0.024 6.946 0 13.677-0.924 20.076-2.656l-0.537 0.124c4.007-1.24 6.314-2.883 7.005-4.987 3.229-9.312-2.681-12.973-15.625-20.584zM64.432 23.582c-0.202 0.519-1.038 1.874-5.16 3.171-13.146 4.094-44.425 2.681-53.16-3.863-1.556-0.976-2.707-2.474-3.216-4.243l-0.013-0.052c-0.039-0.226-0.062-0.486-0.062-0.751 0-1.108 0.393-2.125 1.048-2.918l-0.006 0.008c2.222-2.486 5.438-4.043 9.018-4.043 0.144 0 0.287 0.002 0.43 0.008l-0.021-0.001c3.146 0.022 6.035 1.104 8.332 2.905l-0.030-0.022 1.211 0.923 0.865-1.268c0.519-0.778 10.926-16.173 24.072-8.332l2.162 1.297c13.521 8.014 16.778 10.35 14.53 17.182z"></path>
</symbol>
<symbol id="fog" viewBox="0 0 52 32">
<title>fog</title>
<path d="M3.299 17.617c3.294 1.857 7.159 3.136 11.272 3.589l0.135 0.012h-12.938v2.156h47.439v-2.156h-6.922c1.295-0.244 2.383-0.52 3.444-0.855l-0.21 0.057c2.674-0.863 4.205-1.941 4.701-3.342 2.35-6.469-2.156-8.992-11.817-14.383l-1.617-0.884c-9.768-5.412-17.876 2.803-20.162 5.499-1.91-1.111-4.203-1.768-6.649-1.768-2.014 0-3.925 0.445-5.638 1.241l0.083-0.034c-2.29 0.857-3.978 2.831-4.414 5.241l-0.006 0.042c-0.001 0.041-0.002 0.089-0.002 0.137 0 2.354 1.324 4.399 3.267 5.431l0.033 0.016zM5.348 8.625c1.349-0.627 2.928-0.992 4.593-0.992 0.030 0 0.061 0 0.091 0l-0.005-0c0.021-0 0.045-0 0.070-0 2.297 0 4.426 0.718 6.175 1.942l-0.035-0.023 0.884 0.604 0.604-0.863c0.345-0.388 8.151-11.062 18.027-5.606l1.617 0.906c9.941 5.499 12.485 7.137 10.782 11.752v0c-0.108 0.302-0.668 1.143-3.321 1.984-9.509 3.084-33.596 2.156-40.302-2.501-1.143-0.733-2.501-2.070-2.372-3.601 0.376-1.689 1.581-3.030 3.157-3.59l0.034-0.011z"></path>
<path d="M5.003 25.531h47.439v2.156h-47.439v-2.156z"></path>
<path d="M0.69 29.844h47.439v2.156h-47.439v-2.156z"></path>
</symbol>
<symbol id="partlysunny" viewBox="0 0 42 32">
<title>partlysunny</title>
<path d="M32.875 20.862c-0.619-3.499-2.526-6.469-5.203-8.459l-0.036-0.025c-1.962-1.493-4.446-2.392-7.14-2.392-0.617 0-1.223 0.047-1.815 0.138l0.066-0.008c-5.44 1.146-9.537 5.701-9.977 11.283l-0.003 0.044c-0.957 0.389-1.756 0.998-2.361 1.766l-0.009 0.012c-0.477 0.591-0.765 1.352-0.765 2.18 0 0.21 0.019 0.416 0.054 0.616l-0.003-0.021c0.302 1.186 1.015 2.172 1.976 2.817l0.017 0.011c2.815 2.114 9.67 3.178 16.027 3.178 0.246 0.006 0.535 0.009 0.826 0.009 3.249 0 6.398-0.426 9.395-1.225l-0.254 0.058c1.872-0.593 2.95-1.347 3.273-2.343 1.212-3.475-0.323-5.226-4.067-7.636zM18.963 11.434c0.455-0.070 0.981-0.11 1.515-0.11 2.403 0 4.618 0.806 6.389 2.162l-0.025-0.019c2.111 1.564 3.673 3.764 4.41 6.313l0.021 0.085-1.643-1.010-1.010-0.606c-6.088-3.636-11.111 1.953-12.606 3.731-1.179-0.738-2.611-1.176-4.145-1.176-0.593 0-1.17 0.065-1.726 0.189l0.053-0.010c0.646-4.737 4.149-8.504 8.692-9.534l0.076-0.014zM35.731 28.067c-0.094 0.242-0.485 0.875-2.411 1.481-6.114 1.912-20.754 1.266-24.835-1.805-0.713-0.459-1.238-1.159-1.462-1.983l-0.006-0.024c-0.018-0.105-0.029-0.227-0.029-0.351 0-0.518 0.184-0.993 0.49-1.363l-0.003 0.004c1.038-1.161 2.541-1.889 4.213-1.889 0.067 0 0.134 0.001 0.201 0.003l-0.010-0c1.47 0.008 2.82 0.514 3.892 1.357l-0.014-0.010 0.566 0.431 0.404-0.593c0.202-0.31 5.104-7.502 11.205-3.838l1.010 0.606c6.249 3.677 7.838 4.795 6.788 7.973z"></path>
<path d="M0 16.835h6.734v1.347h-6.734v-1.347z"></path>
<path d="M19.529 0h1.347v8.081h-1.347v-8.081z"></path>
<path d="M35.69 16.835h6.734v1.347h-6.734v-1.347z"></path>
</symbol>
<symbol id="rain" viewBox="0 0 44 32">
<title>rain</title>
<path d="M32.904 2.51l-1.384-0.83c-8.36-5.020-15.336 2.565-17.292 5.075-4.687-2.934-10.685-1.642-13.176 1.698-0.691 0.821-1.111 1.89-1.111 3.056 0 0.263 0.021 0.521 0.062 0.773l-0.004-0.027c0.413 1.625 1.391 2.976 2.708 3.861l0.023 0.015c3.857 2.897 13.25 4.355 21.961 4.355 0.364 0.010 0.793 0.015 1.223 0.015 4.447 0 8.755-0.591 12.851-1.7l-0.344 0.079c2.565-0.794 4.042-1.845 4.484-3.193 2.067-5.961-1.716-8.305-10.002-13.176zM41.227 15.096c-0.111 0.332-0.646 1.2-3.285 2.030-8.415 2.621-28.438 1.716-34.030-2.473-0.996-0.625-1.733-1.583-2.059-2.716l-0.008-0.033c-0.025-0.145-0.040-0.311-0.040-0.481 0-0.71 0.252-1.36 0.671-1.868l-0.004 0.005c1.422-1.591 3.481-2.588 5.773-2.588 0.092 0 0.184 0.002 0.275 0.005l-0.013-0c2.014 0.014 3.863 0.707 5.334 1.86l-0.019-0.014 0.775 0.591 0.554-0.812c0.332-0.498 6.994-10.353 15.409-5.333l1.384 0.83c8.655 5.13 10.74 6.625 9.283 10.999z"></path>
<path d="M20.89 20.927h1.845v5.536h-1.845v-5.536z"></path>
<path d="M26.427 26.464h1.845v5.536h-1.845v-5.536z"></path>
<path d="M33.809 22.773h1.845v5.536h-1.845v-5.536z"></path>
<path d="M11.663 24.618h1.845v5.536h-1.845v-5.536z"></path>
</symbol>
<symbol id="sunny" viewBox="0 0 32 32">
<title>sunny</title>
<path d="M16 8c-4.418 0-8 3.582-8 8s3.582 8 8 8c4.418 0 8-3.582 8-8v0c0-4.418-3.582-8-8-8v0zM16 22.933c-3.829 0-6.933-3.104-6.933-6.933s3.104-6.933 6.933-6.933c3.829 0 6.933 3.104 6.933 6.933v0c-0.006 3.827-3.107 6.927-6.933 6.933h-0.001z"></path>
<path d="M25.6 15.467h6.4v1.067h-6.4v-1.067z"></path>
<path d="M0 15.467h6.4v1.067h-6.4v-1.067z"></path>
<path d="M15.467 0h1.067v6.4h-1.067v-6.4z"></path>
<path d="M15.467 25.6h1.067v6.4h-1.067v-6.4z"></path>
</symbol>
</defs>
</svg>
